<svg width="87" height="136" viewBox="0 0 87 136" fill="none" xmlns="http://www.w3.org/2000/svg">
<g clip-path="url(#clip0_543_119)">
<path d="M3 2H50.4438C52.0036 2 52.963 3.70601 52.1529 5.03883L39.0842 26.5388C38.7215 27.1357 38.0736 27.5 37.3752 27.5H27.5C26.3954 27.5 25.5 28.3954 25.5 29.5V51C25.5 52.1046 26.3954 53 27.5 53H50.9209C52.4855 53 53.4442 54.7157 52.6242 56.0482L39.0857 78.0482C38.7217 78.6397 38.0769 79 37.3824 79H27.5C26.3954 79 25.5 79.8954 25.5 81V99.4301C25.5 99.8026 25.396 100.168 25.1996 100.484L4.69961 133.535C3.63859 135.246 1 134.494 1 132.481V4C1 2.89543 1.89543 2 3 2Z" fill="#1F2025"/>
<path d="M49.8471 24.4612L62.9158 2.96117C63.2785 2.36435 63.9264 2 64.6248 2H82.9438C84.5036 2 85.463 3.70601 84.6529 5.03883L71.5842 26.5388C71.2215 27.1357 70.5736 27.5 69.8752 27.5H51.5562C49.9964 27.5 49.037 25.794 49.8471 24.4612Z" fill="#22FF7E"/>
</g>
<defs>
<clipPath id="clip0_543_119">
<rect width="87" height="136" fill="white"/>
</clipPath>
</defs>
</svg>
